<svg id="Capa_1" data-name="Capa 1" xmlns="http://www.w3.org/2000/svg" viewBox="0 0 349.06348 146.90967"><defs><style>.cls-1{fill:#fff;}</style></defs><title>yuhu</title><path class="cls-1" d="M62.349,128.39307a16.02689,16.02689,0,0,1-4.80029,6.36132,18.016,18.016,0,0,1-6.99707,3.23829,36.54532,36.54532,0,0,1-8.27.92578A55.972,55.972,0,0,1,29.559,137.70361q-2.67426-.63867-4.5813-1.19677a3.189,3.189,0,0,0-3.88812,1.97686v.00006a3.2026,3.2026,0,0,0,2.11395,4.17206q1.987.58365,4.794,1.29389a60.13356,60.13356,0,0,0,14.3999,1.44531,41.9256,41.9256,0,0,0,12.08642-1.61914,23.54154,23.54154,0,0,0,9.19532-5.08984,22.87884,22.87884,0,0,0,5.89843-8.84766,35.74169,35.74169,0,0,0,2.082-12.89649V64.77881a9.62015,9.62015,0,0,0-1.4458-.52051,7.18619,7.18619,0,0,0-2.02393-.28906,3.6437,3.6437,0,0,0-4.16406,3.93213V95.4292q0,9.60132-4.85743,15.15137-4.85814,5.55176-14.92041,5.55175-9.71557,0-14.22656-5.147-4.511-5.14453-4.51074-14.3999V64.77881a9.6193,9.6193,0,0,0-1.4458-.52051,7.18614,7.18614,0,0,0-2.02393-.28906,4.07463,4.07463,0,0,0-3.18066,1.09863,4.088,4.088,0,0,0-.9834,2.8335V98.20508q0,11.33643,6.7085,17.92724,6.70679,6.59326,19.31543,6.59278a27.769,27.769,0,0,0,12.665-2.71778,16.25522,16.25522,0,0,0,7.57568-7.11328v5.32032A25.22775,25.22775,0,0,1,62.349,128.39307ZM85.491,64.2583a7.18614,7.18614,0,0,0-2.02393-.28906A3.6437,3.6437,0,0,0,79.303,67.90137V98.20508a25.9505,25.9505,0,0,0,1.85059,9.94678,21.72572,21.72572,0,0,0,5.3208,7.749,24.20679,24.20679,0,0,0,8.44287,5.03125,32.92514,32.92514,0,0,0,11.21924,1.793,33.43211,33.43211,0,0,0,11.27734-1.793,24.13023,24.13023,0,0,0,8.501-5.03125,21.75588,21.75588,0,0,0,5.32031-7.749,25.98749,25.98749,0,0,0,1.85058-9.94678V64.77881a9.6193,9.6193,0,0,0-1.4458-.52051,7.18607,7.18607,0,0,0-2.02392-.28906,3.64369,3.64369,0,0,0-4.16406,3.93213V95.8916q0,9.60205-4.79981,14.92041-4.801,5.32177-14.51562,5.32031-9.71559,0-14.45752-5.32031-4.7439-5.31885-4.74219-14.92041V64.77881A9.61972,9.61972,0,0,0,85.491,64.2583Zm248.7959,63.42578a4.5,4.5,0,0,0,4.5-4.5v-.74652a30.72307,30.72307,0,0,0,6.71875-1.50543,24.11706,24.11706,0,0,0,8.501-5.03125,21.75179,21.75179,0,0,0,5.32129-7.749,25.98749,25.98749,0,0,0,1.85059-9.94678V64.77881a9.65037,9.65037,0,0,0-1.44629-.52051,7.18955,7.18955,0,0,0-2.02442-.28906,3.64236,3.64236,0,0,0-4.16308,3.93213V95.8916q0,9.60205-4.79981,14.92041-4.80176,5.32177-14.51562,5.32031-9.71631,0-14.458-5.32031-4.74462-5.31885-4.74219-14.92041V64.77881a9.62971,9.62971,0,0,0-1.44531-.52051,7.18953,7.18953,0,0,0-2.02441-.28906,3.6437,3.6437,0,0,0-4.16407,3.93213V98.20508a25.95069,25.95069,0,0,0,1.85059,9.94678,21.737,21.737,0,0,0,5.32031,7.749,24.20919,24.20919,0,0,0,8.44336,5.03125,30.15323,30.15323,0,0,0,6.77735,1.51788v.73407A4.5,4.5,0,0,0,334.28693,127.68408Zm-61.38538,0a4.5,4.5,0,0,0,4.5-4.5v-.74652a30.7266,30.7266,0,0,0,6.71875-1.50543,24.1171,24.1171,0,0,0,8.501-5.03125,21.752,21.752,0,0,0,5.32129-7.749,25.98749,25.98749,0,0,0,1.85058-9.94678V64.77881a9.65037,9.65037,0,0,0-1.44629-.52051,7.18953,7.18953,0,0,0-2.02441-.28906,3.64236,3.64236,0,0,0-4.16309,3.93213V95.8916q0,9.60205-4.7998,14.92041-4.80175,5.32177-14.5166,5.32031-9.71485,0-14.457-5.32031-4.74316-5.31885-4.74219-14.92041V64.77881a9.61972,9.61972,0,0,0-1.4458-.52051,7.18614,7.18614,0,0,0-2.02393-.28906A3.6437,3.6437,0,0,0,246.01,67.90137V98.20508a25.95069,25.95069,0,0,0,1.85058,9.94678,21.72588,21.72588,0,0,0,5.32081,7.749,24.20232,24.20232,0,0,0,8.44287,5.03125,30.1521,30.1521,0,0,0,6.77734,1.51794v.734A4.5,4.5,0,0,0,272.90155,127.68408Zm-122.564,16.67835h-1.863V95.44385h82.11523v48.91858h-1.86352v2.06518h11.37732v-2.06518h-1.86341V26.45984h1.86341V24.39459h-1.86341v-.00006h-2.4815a4.80443,4.80443,0,1,0-2.6875,0h-2.48139v.00006h-1.86352v2.06525h1.86352V70.24951h-2.44629c-2.39062,0-7.66015-1.31543-13.23828-2.708-8.16778-2.03912-17.37188-4.33264-24.42395-4.52771a1.40531,1.40531,0,1,0-1.89862,0c-7.05206.19519-16.25592,2.48859-24.42352,4.52771-5.5791,1.39258-10.84863,2.708-13.23926,2.708h-2.44531V26.45984h1.863V24.39459h-1.863v-.00006h-2.48187a4.80444,4.80444,0,1,0-2.6875,0h-2.481v.00006h-1.86389v2.06525h1.86389V144.36243h-1.86389v2.06518h11.37726Zm1.94073-53.14417a.33486.33486,0,0,0-.09387.22559h-1.37506a.33219.33219,0,0,0-.08185-.2168.80417.80417,0,0,1-.03027-1.06445.34185.34185,0,1,0-.52539-.4375,1.47159,1.47159,0,0,0-.10261,1.71875h-1.11352a.32473.32473,0,0,0,.0003-.04883,2.45,2.45,0,0,1,.52442-2.03711,1.8977,1.8977,0,0,1,2.66992-.24219A1.46723,1.46723,0,0,1,152.27832,91.21826Zm10.81055-5.14941a.501.501,0,0,0-.7041.06347,1.95414,1.95414,0,0,0,.248,2.749,2.3138,2.3138,0,0,0,3.25977-.29395A2.77216,2.77216,0,0,0,165.541,84.688a3.33539,3.33539,0,0,0-4.69825.4248,4.048,4.048,0,0,0,.51465,5.69532,4.93242,4.93242,0,0,0,1.00812.63574h-5.8916a.49087.49087,0,0,0-.02374-.15625,8.18346,8.18346,0,0,1,1.39648-8.02539,6.42228,6.42228,0,0,1,9.0459-.81739,5.0387,5.0387,0,0,1,.6416,7.09571,3.93069,3.93069,0,0,1-5.53613.5,3.047,3.047,0,0,1-.3877-4.28711,2.337,2.337,0,0,1,3.29-.29785,1.77212,1.77212,0,0,1,.22461,2.49121,1.303,1.303,0,0,1-.89062.46679,1.2764,1.2764,0,0,1-.96094-.2998.95394.95394,0,0,1-.1211-1.34082A.50006.50006,0,0,0,163.08887,86.06885Zm-8.00324.93219a4.86718,4.86718,0,0,0-.82489-.90583,5.97721,5.97721,0,0,0-1.25812-.80065,9.81223,9.81223,0,0,0,3.038-1.09009A9.179,9.179,0,0,0,155.08563,87.001Zm11.5929,4.44281a4.90118,4.90118,0,0,0,1.62323-1.2627,6.02876,6.02876,0,0,0,1.0636-1.88537,7.03616,7.03616,0,0,0,1.57379,1.7832,5.63337,5.63337,0,0,0,2.5296,1.36487Zm14.95892,0h-7.94452a.46989.46989,0,0,0,.32-.13446c.36719-.43738-.41364-1.69739-1.744-2.81433a5.37867,5.37867,0,0,0-2.62256-1.37928,6.07266,6.07266,0,0,0,.03235-1.34576,5.99959,5.99959,0,0,0-2.14551-4.09277,7.39776,7.39776,0,0,0-5.49231-1.67981,39.86517,39.86517,0,0,1,10.30646-5.38251,9.00413,9.00413,0,0,0-.722.76178c-1.117,1.33038-1.66785,2.70654-1.23047,3.07379s1.69745-.41363,2.81439-1.744a4.79528,4.79528,0,0,0,1.365-2.7525c1.1936-.31458,2.46216-.58655,3.82611-.81213a5.99568,5.99568,0,0,0-1.91016,5.40942,4.90068,4.90068,0,0,0,5.62012,4.05859,4.02509,4.02509,0,0,0,3.3291-4.61035,3.3149,3.3149,0,0,0-3.80273-2.74609,2.756,2.756,0,0,0-2.28027,3.15722,2.29672,2.29672,0,0,0,2.64062,1.90625,1.9418,1.9418,0,0,0,1.6084-2.22656,1.6521,1.6521,0,0,0-1.89649-1.36914.49834.49834,0,0,0-.41308.57324.492.492,0,0,0,.57324.41309.66866.66866,0,0,1,.48731.11621.65094.65094,0,0,1,.26171.42578.9451.9451,0,0,1-.78027,1.08106,1.30611,1.30611,0,0,1-1.49512-1.08008,1.7572,1.7572,0,0,1,1.45411-2.01074,2.31787,2.31787,0,0,1,2.65625,1.91992,3.0258,3.0258,0,0,1-2.50293,3.46387,3.90392,3.90392,0,0,1-4.47364-3.23145,4.96061,4.96061,0,0,1,3.76752-5.63739c.571-.06232,1.16052-.11658,1.764-.16486a6.368,6.368,0,0,1,5.92456,5.34912,14.5753,14.5753,0,0,1-1.56348,7.97461c-1.41894,2.89454-3.3584,4.73536-5.32129,5.05274A.49161.49161,0,0,0,181.63745,91.44385Zm4.39606-19.031c1.11377-.0426,2.27417-.06671,3.49872-.06671,1.22424,0,2.38433.02411,3.49786.06665a7.4757,7.4757,0,0,0-.92169.55933A7.324,7.324,0,0,0,189.532,76.332a7.32674,7.32674,0,0,0-2.577-3.3598A7.47833,7.47833,0,0,0,186.03351,72.4129Zm-2.30194,19.031a10.77963,10.77963,0,0,0,4.535-5.08985,18.14466,18.14466,0,0,0,1.2652-3.42877,18.15507,18.15507,0,0,0,1.26508,3.42877,10.78137,10.78137,0,0,0,4.53454,5.08985Zm13.69439,0a.49164.49164,0,0,0-.40936-.47754c-1.96387-.31738-3.90332-2.1582-5.32129-5.05274a14.56824,14.56824,0,0,1-1.56347-7.97558,6.37031,6.37031,0,0,1,5.91858-5.34857c.60241.04815,1.191.10229,1.7611.16443a4.996,4.996,0,0,1,3.77637,5.63824,3.91376,3.91376,0,0,1-4.47559,3.23145,3.02581,3.02581,0,0,1-2.50195-3.46387,2.31812,2.31812,0,0,1,2.65723-1.91992,1.75626,1.75626,0,0,1,1.45215,2.01171,1.30878,1.30878,0,0,1-1.49317,1.07911.94509.94509,0,0,1-.78125-1.08106.64974.64974,0,0,1,.26367-.42578.66408.66408,0,0,1,.48633-.11621.49962.49962,0,0,0,.16016-.98633,1.65176,1.65176,0,0,0-1.89649,1.36817,1.94438,1.94438,0,0,0,1.6084,2.22753,2.29938,2.29938,0,0,0,2.63965-1.90625,2.75582,2.75582,0,0,0-2.2793-3.15722,3.31837,3.31837,0,0,0-3.80371,2.74707,4.02064,4.02064,0,0,0,3.32911,4.60937,4.90209,4.90209,0,0,0,5.62109-4.05859,5.99992,5.99992,0,0,0-1.91138-5.40949c1.34027.22168,2.588.48847,3.76343.79609a4.75186,4.75186,0,0,0,1.327,2.78094c1.09918,1.34509,2.34875,2.14258,2.791,1.78119s-.09033-1.74475-1.18951-3.08984a8.96807,8.96807,0,0,0-.78284-.842,39.55771,39.55771,0,0,1,10.35687,5.36432,7.4,7.4,0,0,0-5.37408,1.7008,6.02571,6.02571,0,0,0-2.1485,4.843,4.95352,4.95352,0,0,0-2.43726,1.81878c-1.11688,1.33039-1.66778,2.70655-1.2304,3.0738a.38789.38789,0,0,0,.17706.075Zm8.68537,0a4.93467,4.93467,0,0,0,2.44159-1.819,7.80672,7.80672,0,0,0,1.089-1.66248,6.00087,6.00087,0,0,0,1.16082,2.17682,4.89113,4.89113,0,0,0,1.73877,1.30469Zm16.52344-.15821a.49177.49177,0,0,0-.02491.15821h-5.993a4.93383,4.93383,0,0,0,1.1322-.69043,4.04511,4.04511,0,0,0,.50391-5.69727,3.33494,3.33494,0,0,0-4.69922-.416,2.767,2.767,0,0,0-.34473,3.89941,2.31489,2.31489,0,0,0,3.26075.29,1.95138,1.95138,0,0,0,.24218-2.751.49977.49977,0,0,0-.76562.64258.95029.95029,0,0,1-.11914,1.34082,1.31719,1.31719,0,0,1-.96.30176,1.30217,1.30217,0,0,1-.8916-.46582,1.76927,1.76927,0,0,1,.2207-2.49121,2.285,2.285,0,0,1,1.7041-.53516,2.32139,2.32139,0,0,1,1.58594.82715,3.04274,3.04274,0,0,1-.37988,4.28711,3.929,3.929,0,0,1-5.53614-.48926,5.04132,5.04132,0,0,1,.627-7.0957,6.40871,6.40871,0,0,1,7.24908-.68421q.6102.44231,1.23724.90119a6.52289,6.52289,0,0,1,.56153.58282A8.1772,8.1772,0,0,1,222.63477,91.28564ZM223.119,84.26a9.79522,9.79522,0,0,0,2.86151,1.01868,5.97982,5.97982,0,0,0-1.14459.74719,4.892,4.892,0,0,0-.81916.90192A9.17036,9.17036,0,0,0,223.119,84.26Zm7.01868,7.12622a.31828.31828,0,0,0-.00116.05762h-1.1269a1.48632,1.48632,0,0,0-.078-1.7959.3411.3411,0,0,0-.52344.4375.80562.80562,0,0,1-.10058,1.13281.33822.33822,0,0,0-.11731.22559h-1.187a.33721.33721,0,0,0-.11365-.24024,1.23613,1.23613,0,0,1-.11719-.12011,1.44719,1.44719,0,0,1,.17969-2.04,1.8933,1.8933,0,0,1,2.66992.23633A2.43594,2.43594,0,0,1,230.1377,91.38623Zm.45214-1.81946a3.12217,3.12217,0,0,0-.44433-.72546,2.57634,2.57634,0,0,0-3.63086-.32129,2.11646,2.11646,0,0,0-.31873,2.92383h-1.7666a.49778.49778,0,0,0-.03869-.19531,3.85083,3.85083,0,0,1,1.08789-4.45606,4.84786,4.84786,0,0,1,5.11132-.74536Zm0-4.60632c-.10156-.03455-.20245-.07025-.30615-.09937.10358-.04339.20459-.0932.30615-.14166ZM227.7605,74.23108c.124.00409.266.01843.383.01843h2.03656a4.02777,4.02777,0,0,1,.40973.14691V76.89a2.83409,2.83409,0,0,0-.38867-.493,2.43776,2.43776,0,0,0-3.36523,0,2.00724,2.00724,0,0,0,0,2.834,1.74517,1.74517,0,0,0,2.4082,0,1.4641,1.4641,0,0,0,0-2.06836.49995.49995,0,0,0-.707.707.4627.4627,0,0,1,0,.6543.705.705,0,0,1-.99414,0,1.00672,1.00672,0,0,1,0-1.41993,1.41327,1.41327,0,0,1,1.95117,0,1.85194,1.85194,0,0,1,0,2.61524,2.49294,2.49294,0,0,1-3.44629,0,3.17456,3.17456,0,0,1,0-4.48438A4.03453,4.03453,0,0,1,227.7605,74.23108Zm-13.824-2.80872c4.92359,1.22882,9.02631,2.24848,11.9693,2.64423a5.02319,5.02319,0,0,0-.565.46124,4.176,4.176,0,0,0,0,5.89844,3.51838,3.51838,0,0,0,4.86035,0,2.831,2.831,0,0,0,.38867-.49268v3.6623c-2.61883,1.53631-5.8955.71557-8.251-1.00556l-.5625-.41211c-.1601-.11712-.31781-.2323-.47632-.3482a7.35064,7.35064,0,0,0-1.27222-.92639c-.69171-.501-1.374-.989-2.05359-1.46167a6.299,6.299,0,0,0,2.33655-1.31714c1.3382-1.10755,2.12787-2.36206,1.76373-2.802s-1.74414.1012-3.08239,1.20875a5.28726,5.28726,0,0,0-1.83106,2.35137,38.87892,38.87892,0,0,0-18.936-7.0783,6.03956,6.03956,0,0,0-.62158-.1352,7.42466,7.42466,0,0,0-1.597-.07922c-1.44488-.11591-2.97937-.19214-4.61981-.22437a2.85344,2.85344,0,0,0,.106-4.30261C198.0332,67.45667,206.77429,69.63446,213.93652,71.42236Zm-24.40429-4.13965a1.88819,1.88819,0,1,1-1.88868,1.8877A1.88966,1.88966,0,0,1,189.53223,67.28271Zm-41.05762,7.11377a4.04075,4.04075,0,0,1,.41125-.147h2.03406c.11676,0,.2583-.01434.382-.01837a4.03516,4.03516,0,0,1,1.71466,1.00372,3.17456,3.17456,0,0,1,0,4.48438,2.49294,2.49294,0,0,1-3.44629,0,1.8484,1.8484,0,0,1,0-2.61524,1.41327,1.41327,0,0,1,1.95117,0,1.00672,1.00672,0,0,1,0,1.41993.705.705,0,0,1-.99414,0,.4627.4627,0,0,1,0-.6543.49995.49995,0,1,0-.707-.707,1.4641,1.4641,0,0,0,0,2.06836,1.74518,1.74518,0,0,0,2.40821,0,2.00725,2.00725,0,0,0,0-2.834,2.43777,2.43777,0,0,0-3.36524,0,2.86255,2.86255,0,0,0-.38867.49311Zm0,5.53687a2.86584,2.86584,0,0,0,.38867.49292,3.51838,3.51838,0,0,0,4.86035,0,4.176,4.176,0,0,0,0-5.89844,5.01894,5.01894,0,0,0-.56512-.46136c2.943-.39588,7.04553-1.41541,11.96942-2.64411,7.161-1.78784,15.9024-3.96557,22.44287-4.35913a2.85322,2.85322,0,0,0,.1062,4.30268c-1.64032.03222-3.17474.10846-4.6195.2243a7.43045,7.43045,0,0,0-1.59754.07922,6.02533,6.02533,0,0,0-.62183.13532,38.90039,38.90039,0,0,0-18.98547,7.11285,5.27182,5.27182,0,0,0-1.8147-2.36725c-1.33038-1.11694-2.7066-1.66784-3.07379-1.23046s.41364,1.69744,1.744,2.81439A6.24253,6.24253,0,0,0,161.05,79.47c-1.23126.85755-2.47,1.76312-3.76288,2.70917l-.56152.41113c-2.35382,1.71948-5.63038,2.54218-8.251,1.00574Zm0,4.78607c.14484.06909.28973.13782.43866.19647-.14856.03913-.29431.085-.43866.1352Zm0,1.421a4.854,4.854,0,0,1,5.14551.72235,3.85929,3.85929,0,0,1,1.11328,4.41114.494.494,0,0,0-.03119.16992h-1.74274a2.12668,2.12668,0,0,0-.37158-2.85156,2.58106,2.58106,0,0,0-3.63086.32812,3.12159,3.12159,0,0,0-.48242.83783ZM361.19824,156.1792H17.86523a2.86524,2.86524,0,0,0,0,5.73047h343.333a2.86524,2.86524,0,1,0,0-5.73047ZM17.877,51.66748h115.209a2.86572,2.86572,0,0,0,0-5.73144H17.877a2.86572,2.86572,0,0,0,0,5.73144Zm228.11328,0h115.208a2.86572,2.86572,0,0,0,0-5.73144h-115.208a2.86572,2.86572,0,0,0,0,5.73144Z" transform="translate(-15 -15)"/></svg>